<svg xmlns="http://www.w3.org/2000/svg" width="256" height="256" viewBox="0 0 64 64">
    <!-- Soft beige background echoing the layout background -->
    <rect width="64" height="64" rx="12" fill="#F6E7DA"/>

    <!-- Teal circle as a strong, legible anchor at small sizes -->
    <circle cx="32" cy="32" r="22" fill="#5FA6A3"/>

    <!-- Flower (orange/peach petals) -->
    <g transform="translate(32,32)">
        <!-- 8 petals -->
        <g fill="#F4A261" stroke="#E08A57" stroke-width="0.6" stroke-linejoin="round" opacity="0.98">
            <ellipse rx="3" ry="8.5" transform="rotate(0)" />
            <ellipse rx="3" ry="8.5" transform="rotate(45)" />
            <ellipse rx="3" ry="8.5" transform="rotate(90)" />
            <ellipse rx="3" ry="8.5" transform="rotate(135)" />
            <ellipse rx="3" ry="8.5" transform="rotate(22.5)" />
            <ellipse rx="3" ry="8.5" transform="rotate(67.5)" />
            <ellipse rx="3" ry="8.5" transform="rotate(112.5)" />
            <ellipse rx="3" ry="8.5" transform="rotate(157.5)" />
        </g>
        <!-- flower center -->
        <circle r="5.75" fill="#F9D6A5" stroke="#E9B57A" stroke-width="0.8"/>
    </g>

    <!-- Leaves in deeper teal -->
    <g transform="translate(32,40) rotate(-18)">
        <path d="M-10,6 C-16,4 -18,0 -18,-4 C-12,-4 -8,-2 -6,2 C-6,4 -8,6 -10,6 Z" fill="#317E78"/>
        <path d="M10,6 C16,4 18,0 18,-4 C12,-4 8,-2 6,2 C6,4 8,6 10,6 Z" fill="#3E918B"/>
    </g>

    <!-- Subtle highlight -->
    <ellipse cx="23" cy="23" rx="10" ry="5" fill="#FFFFFF" opacity="0.18"/>

    <!-- Small white checkmark (echoes the calendar tick) -->
    <path d="M40.5 20.5 l3 3 l6 -6" fill="none" stroke="#FFFFFF" stroke-width="3" stroke-linecap="round" stroke-linejoin="round"/>
</svg>
